<svg xmlns="http://www.w3.org/2000/svg" xmlns:xlink="http://www.w3.org/1999/xlink" contentStyleType="text/css" data-diagram-type="ACTIVITY" height="656px" preserveAspectRatio="none" style="width:615px;height:656px;background:#FFFFFF;" version="1.1" viewBox="0 0 615 656" width="615px" zoomAndPan="magnify"><defs/><g><ellipse cx="357.1262" cy="20" fill="#222222" rx="10" ry="10" style="stroke:#222222;stroke-width:1;"/><rect fill="#F1F1F1" height="33.9688" rx="12.5" ry="12.5" style="stroke:#181818;stroke-width:0.5;" width="155.2695" x="279.4915" y="50"/><text fill="#000000" font-family="sans-serif" font-size="12" lengthAdjust="spacing" textLength="135.2695" x="289.4915" y="71.1387">User fills booking form</text><rect fill="#F1F1F1" height="47.9375" rx="12.5" ry="12.5" style="stroke:#181818;stroke-width:0.5;" width="187.1152" x="263.5686" y="103.9688"/><text fill="#000000" font-family="sans-serif" font-size="12" lengthAdjust="spacing" textLength="150.5449" x="273.5686" y="125.1074">Send POST /api/Bookings</text><text fill="#000000" font-family="sans-serif" font-size="12" lengthAdjust="spacing" textLength="167.1152" x="273.5686" y="139.0762">with CreateBookingRequest</text><polygon fill="#F1F1F1" points="301.9785,171.9063,412.2739,171.9063,424.2739,183.9063,412.2739,195.9063,301.9785,195.9063,289.9785,183.9063,301.9785,171.9063" style="stroke:#181818;stroke-width:0.5;"/><text fill="#000000" font-family="sans-serif" font-size="11" lengthAdjust="spacing" textLength="110.2954" x="301.9785" y="187.7144">Is ModelState valid?</text><text fill="#000000" font-family="sans-serif" font-size="11" lengthAdjust="spacing" textLength="19.0083" x="270.9702" y="181.312">yes</text><text fill="#000000" font-family="sans-serif" font-size="11" lengthAdjust="spacing" textLength="13.7017" x="424.2739" y="181.312">no</text><rect fill="#F1F1F1" height="33.9688" rx="12.5" ry="12.5" style="stroke:#181818;stroke-width:0.5;" width="179.2988" x="103.8833" y="205.9063"/><text fill="#000000" font-family="sans-serif" font-size="12" lengthAdjust="spacing" textLength="159.2988" x="113.8833" y="227.0449">Map data to BookingEntity</text><rect fill="#F1F1F1" height="33.9688" rx="12.5" ry="12.5" style="stroke:#181818;stroke-width:0.5;" width="267.125" x="59.9702" y="259.875"/><text fill="#000000" font-family="sans-serif" font-size="12" lengthAdjust="spacing" textLength="247.125" x="69.9702" y="281.0137">Call BookingService.CreateBookingAsync</text><rect fill="#F1F1F1" height="33.9688" rx="12.5" ry="12.5" style="stroke:#181818;stroke-width:0.5;" width="195.793" x="95.6362" y="313.8438"/><text fill="#000000" font-family="sans-serif" font-size="12" lengthAdjust="spacing" textLength="175.793" x="105.6362" y="334.9824">BookingRepository.AddAsync</text><rect fill="#F1F1F1" height="33.9688" rx="12.5" ry="12.5" style="stroke:#181818;stroke-width:0.5;" width="124.7656" x="131.1499" y="367.8125"/><text fill="#000000" font-family="sans-serif" font-size="12" lengthAdjust="spacing" textLength="104.7656" x="141.1499" y="388.9512">Save to database</text><polygon fill="#F1F1F1" points="153.2253,421.7813,233.8401,421.7813,245.8401,433.7813,233.8401,445.7813,153.2253,445.7813,141.2253,433.7813,153.2253,421.7813" style="stroke:#181818;stroke-width:0.5;"/><text fill="#000000" font-family="sans-serif" font-size="11" lengthAdjust="spacing" textLength="80.6147" x="153.2253" y="437.5894">Save Success?</text><text fill="#000000" font-family="sans-serif" font-size="11" lengthAdjust="spacing" textLength="19.0083" x="122.217" y="431.187">yes</text><text fill="#000000" font-family="sans-serif" font-size="11" lengthAdjust="spacing" textLength="13.7017" x="245.8401" y="431.187">no</text><rect fill="#F1F1F1" height="33.9688" rx="12.5" ry="12.5" style="stroke:#181818;stroke-width:0.5;" width="108.418" x="35.3193" y="455.7813"/><text fill="#000000" font-family="sans-serif" font-size="12" lengthAdjust="spacing" textLength="88.418" x="45.3193" y="476.9199">Return 200 OK</text><rect fill="#F1F1F1" height="33.9688" rx="12.5" ry="12.5" style="stroke:#181818;stroke-width:0.5;" width="157.0566" x="11" y="509.75"/><text fill="#000000" font-family="sans-serif" font-size="12" lengthAdjust="spacing" textLength="137.0566" x="21" y="530.8887">Show "Booking added"</text><rect fill="#F1F1F1" height="33.9688" rx="12.5" ry="12.5" style="stroke:#181818;stroke-width:0.5;" width="214.2676" x="190.4033" y="455.7813"/><text fill="#000000" font-family="sans-serif" font-size="12" lengthAdjust="spacing" textLength="194.2676" x="200.4033" y="476.9199">Return 500 Internal Server Error</text><rect fill="#F1F1F1" height="33.9688" rx="12.5" ry="12.5" style="stroke:#181818;stroke-width:0.5;" width="218.9609" x="188.0566" y="509.75"/><text fill="#000000" font-family="sans-serif" font-size="12" lengthAdjust="spacing" textLength="198.9609" x="198.0566" y="530.8887">Show "Unable to create booking"</text><polygon fill="#F1F1F1" points="193.5327,549.7188,205.5327,561.7188,193.5327,573.7188,181.5327,561.7188,193.5327,549.7188" style="stroke:#181818;stroke-width:0.5;"/><rect fill="#F1F1F1" height="33.9688" rx="12.5" ry="12.5" style="stroke:#181818;stroke-width:0.5;" width="167.4043" x="437.0176" y="205.9063"/><text fill="#000000" font-family="sans-serif" font-size="12" lengthAdjust="spacing" textLength="147.4043" x="447.0176" y="227.0449">Return 400 Bad Request</text><rect fill="#F1F1F1" height="33.9688" rx="12.5" ry="12.5" style="stroke:#181818;stroke-width:0.5;" width="154.8652" x="443.2871" y="259.875"/><text fill="#000000" font-family="sans-serif" font-size="12" lengthAdjust="spacing" textLength="134.8652" x="453.2871" y="281.0137">Show validation errors</text><polygon fill="#F1F1F1" points="357.1262,579.7188,369.1262,591.7188,357.1262,603.7188,345.1262,591.7188,357.1262,579.7188" style="stroke:#181818;stroke-width:0.5;"/><ellipse cx="357.1262" cy="634.7188" fill="none" rx="11" ry="11" style="stroke:#222222;stroke-width:1;"/><ellipse cx="357.1262" cy="634.7188" fill="#222222" rx="6" ry="6" style="stroke:#222222;stroke-width:1;"/><line style="stroke:#181818;stroke-width:1;" x1="357.1262" x2="357.1262" y1="30" y2="50"/><polygon fill="#181818" points="353.1262,40,357.1262,50,361.1262,40,357.1262,44" style="stroke:#181818;stroke-width:1;"/><line style="stroke:#181818;stroke-width:1;" x1="357.1262" x2="357.1262" y1="83.9688" y2="103.9688"/><polygon fill="#181818" points="353.1262,93.9688,357.1262,103.9688,361.1262,93.9688,357.1262,97.9688" style="stroke:#181818;stroke-width:1;"/><line style="stroke:#181818;stroke-width:1;" x1="193.5327" x2="193.5327" y1="239.875" y2="259.875"/><polygon fill="#181818" points="189.5327,249.875,193.5327,259.875,197.5327,249.875,193.5327,253.875" style="stroke:#181818;stroke-width:1;"/><line style="stroke:#181818;stroke-width:1;" x1="193.5327" x2="193.5327" y1="293.8438" y2="313.8438"/><polygon fill="#181818" points="189.5327,303.8438,193.5327,313.8438,197.5327,303.8438,193.5327,307.8438" style="stroke:#181818;stroke-width:1;"/><line style="stroke:#181818;stroke-width:1;" x1="193.5327" x2="193.5327" y1="347.8125" y2="367.8125"/><polygon fill="#181818" points="189.5327,357.8125,193.5327,367.8125,197.5327,357.8125,193.5327,361.8125" style="stroke:#181818;stroke-width:1;"/><line style="stroke:#181818;stroke-width:1;" x1="89.5283" x2="89.5283" y1="489.75" y2="509.75"/><polygon fill="#181818" points="85.5283,499.75,89.5283,509.75,93.5283,499.75,89.5283,503.75" style="stroke:#181818;stroke-width:1;"/><line style="stroke:#181818;stroke-width:1;" x1="297.5371" x2="297.5371" y1="489.75" y2="509.75"/><polygon fill="#181818" points="293.5371,499.75,297.5371,509.75,301.5371,499.75,297.5371,503.75" style="stroke:#181818;stroke-width:1;"/><line style="stroke:#181818;stroke-width:1;" x1="141.2253" x2="89.5283" y1="433.7813" y2="433.7813"/><line style="stroke:#181818;stroke-width:1;" x1="89.5283" x2="89.5283" y1="433.7813" y2="455.7813"/><polygon fill="#181818" points="85.5283,445.7813,89.5283,455.7813,93.5283,445.7813,89.5283,449.7813" style="stroke:#181818;stroke-width:1;"/><line style="stroke:#181818;stroke-width:1;" x1="245.8401" x2="297.5371" y1="433.7813" y2="433.7813"/><line style="stroke:#181818;stroke-width:1;" x1="297.5371" x2="297.5371" y1="433.7813" y2="455.7813"/><polygon fill="#181818" points="293.5371,445.7813,297.5371,455.7813,301.5371,445.7813,297.5371,449.7813" style="stroke:#181818;stroke-width:1;"/><line style="stroke:#181818;stroke-width:1;" x1="89.5283" x2="89.5283" y1="543.7188" y2="561.7188"/><line style="stroke:#181818;stroke-width:1;" x1="89.5283" x2="181.5327" y1="561.7188" y2="561.7188"/><polygon fill="#181818" points="171.5327,557.7188,181.5327,561.7188,171.5327,565.7188,175.5327,561.7188" style="stroke:#181818;stroke-width:1;"/><line style="stroke:#181818;stroke-width:1;" x1="297.5371" x2="297.5371" y1="543.7188" y2="561.7188"/><line style="stroke:#181818;stroke-width:1;" x1="297.5371" x2="205.5327" y1="561.7188" y2="561.7188"/><polygon fill="#181818" points="215.5327,557.7188,205.5327,561.7188,215.5327,565.7188,211.5327,561.7188" style="stroke:#181818;stroke-width:1;"/><line style="stroke:#181818;stroke-width:1;" x1="193.5327" x2="193.5327" y1="401.7813" y2="421.7813"/><polygon fill="#181818" points="189.5327,411.7813,193.5327,421.7813,197.5327,411.7813,193.5327,415.7813" style="stroke:#181818;stroke-width:1;"/><line style="stroke:#181818;stroke-width:1;" x1="520.7197" x2="520.7197" y1="239.875" y2="259.875"/><polygon fill="#181818" points="516.7197,249.875,520.7197,259.875,524.7197,249.875,520.7197,253.875" style="stroke:#181818;stroke-width:1;"/><line style="stroke:#181818;stroke-width:1;" x1="289.9785" x2="193.5327" y1="183.9063" y2="183.9063"/><line style="stroke:#181818;stroke-width:1;" x1="193.5327" x2="193.5327" y1="183.9063" y2="205.9063"/><polygon fill="#181818" points="189.5327,195.9063,193.5327,205.9063,197.5327,195.9063,193.5327,199.9063" style="stroke:#181818;stroke-width:1;"/><line style="stroke:#181818;stroke-width:1;" x1="424.2739" x2="520.7197" y1="183.9063" y2="183.9063"/><line style="stroke:#181818;stroke-width:1;" x1="520.7197" x2="520.7197" y1="183.9063" y2="205.9063"/><polygon fill="#181818" points="516.7197,195.9063,520.7197,205.9063,524.7197,195.9063,520.7197,199.9063" style="stroke:#181818;stroke-width:1;"/><line style="stroke:#181818;stroke-width:1;" x1="193.5327" x2="193.5327" y1="573.7188" y2="591.7188"/><line style="stroke:#181818;stroke-width:1;" x1="193.5327" x2="345.1262" y1="591.7188" y2="591.7188"/><polygon fill="#181818" points="335.1262,587.7188,345.1262,591.7188,335.1262,595.7188,339.1262,591.7188" style="stroke:#181818;stroke-width:1;"/><line style="stroke:#181818;stroke-width:1;" x1="520.7197" x2="520.7197" y1="293.8438" y2="591.7188"/><line style="stroke:#181818;stroke-width:1;" x1="520.7197" x2="369.1262" y1="591.7188" y2="591.7188"/><polygon fill="#181818" points="379.1262,587.7188,369.1262,591.7188,379.1262,595.7188,375.1262,591.7188" style="stroke:#181818;stroke-width:1;"/><line style="stroke:#181818;stroke-width:1;" x1="357.1262" x2="357.1262" y1="151.9063" y2="171.9063"/><polygon fill="#181818" points="353.1262,161.9063,357.1262,171.9063,361.1262,161.9063,357.1262,165.9063" style="stroke:#181818;stroke-width:1;"/><line style="stroke:#181818;stroke-width:1;" x1="357.1262" x2="357.1262" y1="603.7188" y2="623.7188"/><polygon fill="#181818" points="353.1262,613.7188,357.1262,623.7188,361.1262,613.7188,357.1262,617.7188" style="stroke:#181818;stroke-width:1;"/><!--SRC=[NP4nRy8m48Nt_8eJ4oo0gdOXGmM80LM82fUjon5VmAfhfxvBKFvzxP2WqlMUt_VUdLamI9OjZam1IcCjmydxB-FEKFhmdKT9aTFmlbSVCCFAp5OtcJ_TrSW5re5Gg1yUwAScbkWo9Oot33kloIg9Bw11Q_Jh1EH23iOjyIG3MEom0es281vwoCQ9aJPFwXgj7SQAGcCAcZu4BhbrHOoBR-yLAiz6V6YdIwrxFSeA6qeXAUo4J9qfjUm4LHS5CV-l5tq7aZeuU9hFOV-MtsRgugymwWC1jIOzIX9P9XWx_sXzYTQj4meEBQGjugKt8VZmG3iwFDckOT4jE7p33UoqARFiBt-WFqVw2ZNSJpyGktkZ6E-0KXhdMOzXyTKl]--></g></svg>