<svg xmlns="http://www.w3.org/2000/svg" xmlns:xlink="http://www.w3.org/1999/xlink" contentStyleType="text/css" data-diagram-type="SEQUENCE" height="445px" preserveAspectRatio="none" style="width:971px;height:445px;background:#FFFFFF;" version="1.1" viewBox="0 0 971 445" width="971px" zoomAndPan="magnify"><defs/><g><g><title>User</title><rect fill="#000000" fill-opacity="0.00000" height="283.3281" width="8" x="19.9551" y="81.2969"/><line style="stroke:#181818;stroke-width:0.5;stroke-dasharray:5.0,5.0;" x1="23" x2="23" y1="81.2969" y2="364.625"/></g><g><title>BookingsController</title><rect fill="#000000" fill-opacity="0.00000" height="283.3281" width="8" x="332.272" y="81.2969"/><line style="stroke:#181818;stroke-width:0.5;stroke-dasharray:5.0,5.0;" x1="335.7925" x2="335.7925" y1="81.2969" y2="364.625"/></g><g><title>BookingService</title><rect fill="#000000" fill-opacity="0.00000" height="283.3281" width="8" x="550.8022" y="81.2969"/><line style="stroke:#181818;stroke-width:0.5;stroke-dasharray:5.0,5.0;" x1="554.6855" x2="554.6855" y1="81.2969" y2="364.625"/></g><g><title>BookingRepository</title><rect fill="#000000" fill-opacity="0.00000" height="283.3281" width="8" x="759.3794" y="81.2969"/><line style="stroke:#181818;stroke-width:0.5;stroke-dasharray:5.0,5.0;" x1="762.5972" x2="762.5972" y1="81.2969" y2="364.625"/></g><g><title>Database</title><rect fill="#000000" fill-opacity="0.00000" height="283.3281" width="8" x="929.604" y="81.2969"/><line style="stroke:#181818;stroke-width:0.5;stroke-dasharray:5.0,5.0;" x1="933.2036" x2="933.2036" y1="81.2969" y2="364.625"/></g><g class="participant participant-head" data-participant="User"><text fill="#000000" font-family="sans-serif" font-size="14" lengthAdjust="spacing" textLength="31.9102" x="5" y="77.9951">User</text><ellipse cx="23.9551" cy="13.5" fill="#E2E2F0" rx="8" ry="8" style="stroke:#181818;stroke-width:0.5;"/><path d="M23.9551,21.5 L23.9551,48.5 M10.9551,29.5 L36.9551,29.5 M23.9551,48.5 L10.9551,63.5 M23.9551,48.5 L36.9551,63.5" fill="none" style="stroke:#181818;stroke-width:0.5;"/></g><g class="participant participant-tail" data-participant="User"><text fill="#000000" font-family="sans-serif" font-size="14" lengthAdjust="spacing" textLength="31.9102" x="5" y="376.6201">User</text><ellipse cx="23.9551" cy="388.4219" fill="#E2E2F0" rx="8" ry="8" style="stroke:#181818;stroke-width:0.5;"/><path d="M23.9551,396.4219 L23.9551,423.4219 M10.9551,404.4219 L36.9551,404.4219 M23.9551,423.4219 L10.9551,438.4219 M23.9551,423.4219 L36.9551,438.4219" fill="none" style="stroke:#181818;stroke-width:0.5;"/></g><g class="participant participant-head" data-participant="BookingsController"><text fill="#000000" font-family="sans-serif" font-size="14" lengthAdjust="spacing" textLength="132.959" x="266.7925" y="77.9951">BookingsController</text><path d="M315.772,37 L315.772,61 M315.772,49 L332.772,49" fill="none" style="stroke:#181818;stroke-width:0.5;"/><ellipse cx="344.772" cy="49" fill="#E2E2F0" rx="12" ry="12" style="stroke:#181818;stroke-width:0.5;"/></g><g class="participant participant-tail" data-participant="BookingsController"><text fill="#000000" font-family="sans-serif" font-size="14" lengthAdjust="spacing" textLength="132.959" x="266.7925" y="376.6201">BookingsController</text><path d="M315.772,383.9219 L315.772,407.9219 M315.772,395.9219 L332.772,395.9219" fill="none" style="stroke:#181818;stroke-width:0.5;"/><ellipse cx="344.772" cy="395.9219" fill="#E2E2F0" rx="12" ry="12" style="stroke:#181818;stroke-width:0.5;"/></g><g class="participant participant-head" data-participant="BookingService"><text fill="#000000" font-family="sans-serif" font-size="14" lengthAdjust="spacing" textLength="108.2334" x="497.6855" y="77.9951">BookingService</text><ellipse cx="554.8022" cy="49" fill="#E2E2F0" rx="12" ry="12" style="stroke:#181818;stroke-width:0.5;"/><polygon fill="#181818" points="550.8022,37,556.8022,32,554.8022,37,556.8022,42,550.8022,37" style="stroke:#181818;stroke-width:1;"/></g><g class="participant participant-tail" data-participant="BookingService"><text fill="#000000" font-family="sans-serif" font-size="14" lengthAdjust="spacing" textLength="108.2334" x="497.6855" y="376.6201">BookingService</text><ellipse cx="554.8022" cy="395.9219" fill="#E2E2F0" rx="12" ry="12" style="stroke:#181818;stroke-width:0.5;"/><polygon fill="#181818" points="550.8022,383.9219,556.8022,378.9219,554.8022,383.9219,556.8022,388.9219,550.8022,383.9219" style="stroke:#181818;stroke-width:1;"/></g><g class="participant participant-head" data-participant="BookingRepository"><text fill="#000000" font-family="sans-serif" font-size="14" lengthAdjust="spacing" textLength="131.5645" x="694.5972" y="77.9951">BookingRepository</text><ellipse cx="763.3794" cy="49" fill="#E2E2F0" rx="12" ry="12" style="stroke:#181818;stroke-width:0.5;"/><polygon fill="#181818" points="759.3794,37,765.3794,32,763.3794,37,765.3794,42,759.3794,37" style="stroke:#181818;stroke-width:1;"/></g><g class="participant participant-tail" data-participant="BookingRepository"><text fill="#000000" font-family="sans-serif" font-size="14" lengthAdjust="spacing" textLength="131.5645" x="694.5972" y="376.6201">BookingRepository</text><ellipse cx="763.3794" cy="395.9219" fill="#E2E2F0" rx="12" ry="12" style="stroke:#181818;stroke-width:0.5;"/><polygon fill="#181818" points="759.3794,383.9219,765.3794,378.9219,763.3794,383.9219,765.3794,388.9219,759.3794,383.9219" style="stroke:#181818;stroke-width:1;"/></g><g class="participant participant-head" data-participant="Database"><text fill="#000000" font-family="sans-serif" font-size="14" lengthAdjust="spacing" textLength="66.8008" x="897.2036" y="77.9951">Database</text><ellipse cx="933.604" cy="49" fill="#E2E2F0" rx="12" ry="12" style="stroke:#181818;stroke-width:0.5;"/><line style="stroke:#181818;stroke-width:0.5;" x1="921.604" x2="945.604" y1="63" y2="63"/></g><g class="participant participant-tail" data-participant="Database"><text fill="#000000" font-family="sans-serif" font-size="14" lengthAdjust="spacing" textLength="66.8008" x="897.2036" y="376.6201">Database</text><ellipse cx="933.604" cy="395.9219" fill="#E2E2F0" rx="12" ry="12" style="stroke:#181818;stroke-width:0.5;"/><line style="stroke:#181818;stroke-width:0.5;" x1="921.604" x2="945.604" y1="409.9219" y2="409.9219"/></g><g class="message" data-participant-1="User" data-participant-2="BookingsController"><polygon fill="#181818" points="324.272,123.5625,334.272,127.5625,324.272,131.5625,328.272,127.5625" style="stroke:#181818;stroke-width:1;"/><line style="stroke:#181818;stroke-width:1;" x1="23.9551" x2="330.272" y1="127.5625" y2="127.5625"/><text fill="#000000" font-family="sans-serif" font-size="13" lengthAdjust="spacing" textLength="126.2168" x="30.9551" y="107.3638">POST /api/Bookings</text><text fill="#000000" font-family="sans-serif" font-size="13" lengthAdjust="spacing" textLength="149.3286" x="30.9551" y="122.4966">CreateBookingRequest</text></g><g class="message" data-participant-1="BookingsController" data-participant-2="BookingService"><polygon fill="#181818" points="542.8022,152.6953,552.8022,156.6953,542.8022,160.6953,546.8022,156.6953" style="stroke:#181818;stroke-width:1;"/><line style="stroke:#181818;stroke-width:1;" x1="336.272" x2="548.8022" y1="156.6953" y2="156.6953"/><text fill="#000000" font-family="sans-serif" font-size="13" lengthAdjust="spacing" textLength="194.5303" x="343.272" y="151.6294">CreateBookingAsync(request)</text></g><g class="message" data-participant-1="BookingService" data-participant-2="BookingRepository"><polygon fill="#181818" points="751.3794,181.8281,761.3794,185.8281,751.3794,189.8281,755.3794,185.8281" style="stroke:#181818;stroke-width:1;"/><line style="stroke:#181818;stroke-width:1;" x1="554.8022" x2="757.3794" y1="185.8281" y2="185.8281"/><text fill="#000000" font-family="sans-serif" font-size="13" lengthAdjust="spacing" textLength="164.6963" x="561.8022" y="180.7622">AddAsync(BookingEntity)</text></g><g class="message" data-participant-1="BookingRepository" data-participant-2="Database"><polygon fill="#181818" points="921.604,210.9609,931.604,214.9609,921.604,218.9609,925.604,214.9609" style="stroke:#181818;stroke-width:1;"/><line style="stroke:#181818;stroke-width:1;" x1="763.3794" x2="927.604" y1="214.9609" y2="214.9609"/><text fill="#000000" font-family="sans-serif" font-size="13" lengthAdjust="spacing" textLength="146.2246" x="770.3794" y="209.895">INSERT INTO Bookings</text></g><g class="message" data-participant-1="Database" data-participant-2="BookingRepository"><polygon fill="#181818" points="774.3794,240.0938,764.3794,244.0938,774.3794,248.0938,770.3794,244.0938" style="stroke:#181818;stroke-width:1;"/><line style="stroke:#181818;stroke-width:1;stroke-dasharray:2.0,2.0;" x1="768.3794" x2="932.604" y1="244.0938" y2="244.0938"/><text fill="#000000" font-family="sans-serif" font-size="13" lengthAdjust="spacing" textLength="95.272" x="780.3794" y="239.0278">Booking saved</text></g><g class="message" data-participant-1="BookingRepository" data-participant-2="BookingService"><polygon fill="#181818" points="565.8022,269.2266,555.8022,273.2266,565.8022,277.2266,561.8022,273.2266" style="stroke:#181818;stroke-width:1;"/><line style="stroke:#181818;stroke-width:1;stroke-dasharray:2.0,2.0;" x1="559.8022" x2="762.3794" y1="273.2266" y2="273.2266"/><text fill="#000000" font-family="sans-serif" font-size="13" lengthAdjust="spacing" textLength="184.5771" x="571.8022" y="268.1606">RepositoryResult&lt;Success&gt;</text></g><g class="message" data-participant-1="BookingService" data-participant-2="BookingsController"><polygon fill="#181818" points="347.272,298.3594,337.272,302.3594,347.272,306.3594,343.272,302.3594" style="stroke:#181818;stroke-width:1;"/><line style="stroke:#181818;stroke-width:1;stroke-dasharray:2.0,2.0;" x1="341.272" x2="553.8022" y1="302.3594" y2="302.3594"/><text fill="#000000" font-family="sans-serif" font-size="13" lengthAdjust="spacing" textLength="167.3242" x="353.272" y="297.2935">BookingResult&lt;Success&gt;</text></g><g class="message" data-participant-1="BookingsController" data-participant-2="User"><polygon fill="#181818" points="34.9551,342.625,24.9551,346.625,34.9551,350.625,30.9551,346.625" style="stroke:#181818;stroke-width:1;"/><line style="stroke:#181818;stroke-width:1;stroke-dasharray:2.0,2.0;" x1="28.9551" x2="335.272" y1="346.625" y2="346.625"/><text fill="#000000" font-family="sans-serif" font-size="13" lengthAdjust="spacing" textLength="47.7026" x="40.9551" y="326.4263">200 OK</text><text fill="#000000" font-family="sans-serif" font-size="13" lengthAdjust="spacing" textLength="288.3169" x="40.9551" y="341.5591">"Booking added to booking list successfully"</text></g><!--SRC=[TP51JmCX48Nl_8f9JtfesdXiJ9DQUp0chjbTRxsmC3L40fM19lnxiRlBsafFa7cyR-ODN7Zhu8FGiSu68xcBy6JjbpAVjBN6EwjrqaH_7QK6tKa9l2xNUBIa4Z0oD5xv2C_SyuuJClRR0kRh0XnMy5urBIpuKIr6UM-s3hd7JFuEI9uLt1Dpc2hnBhmRYaRSkPvmpwuUJ_Pf-aJOIDdx1d5tpfFTVzucm9Wo-LxUcbtTfgEjSbIMzVcDRaCDY9zGbdgKGavwZHIqVso244Yq_XVnrjfpewBzOia9SVx15Jmibr2zxiri79fBYHAyXMueQ4KUgASTWjPnzWC0]--></g></svg>