<svg xmlns="http://www.w3.org/2000/svg" xmlns:xlink="http://www.w3.org/1999/xlink" contentStyleType="text/css" data-diagram-type="SEQUENCE" height="663px" preserveAspectRatio="none" style="width:1186px;height:663px;background:#FFFFFF;" version="1.1" viewBox="0 0 1186 663" width="1186px" zoomAndPan="magnify"><defs/><g><g><title>User</title><rect fill="#000000" fill-opacity="0.00000" height="501.2578" width="8" x="19.9551" y="81.2969"/><line style="stroke:#181818;stroke-width:0.5;stroke-dasharray:5.0,5.0;" x1="23" x2="23" y1="81.2969" y2="582.5547"/></g><g><title>BookingsController</title><rect fill="#000000" fill-opacity="0.00000" height="501.2578" width="8" x="218.5283" y="81.2969"/><line style="stroke:#181818;stroke-width:0.5;stroke-dasharray:5.0,5.0;" x1="222.0488" x2="222.0488" y1="81.2969" y2="582.5547"/></g><g><title>BookingService</title><rect fill="#000000" fill-opacity="0.00000" height="501.2578" width="8" x="421.3926" y="81.2969"/><line style="stroke:#181818;stroke-width:0.5;stroke-dasharray:5.0,5.0;" x1="425.2759" x2="425.2759" y1="81.2969" y2="582.5547"/></g><g><title>BookingRepository</title><rect fill="#000000" fill-opacity="0.00000" height="501.2578" width="8" x="588.7861" y="81.2969"/><line style="stroke:#181818;stroke-width:0.5;stroke-dasharray:5.0,5.0;" x1="592.0039" x2="592.0039" y1="81.2969" y2="582.5547"/></g><g><title>BookingOwnerRepository</title><rect fill="#000000" fill-opacity="0.00000" height="501.2578" width="8" x="759.2065" y="81.2969"/><line style="stroke:#181818;stroke-width:0.5;stroke-dasharray:5.0,5.0;" x1="762.5684" x2="762.5684" y1="81.2969" y2="582.5547"/></g><g><title>BookingAddressRepository</title><rect fill="#000000" fill-opacity="0.00000" height="501.2578" width="8" x="957.7808" y="81.2969"/><line style="stroke:#181818;stroke-width:0.5;stroke-dasharray:5.0,5.0;" x1="960.8447" x2="960.8447" y1="81.2969" y2="582.5547"/></g><g><title>Database</title><rect fill="#000000" fill-opacity="0.00000" height="501.2578" width="8" x="1144.8965" y="81.2969"/><line style="stroke:#181818;stroke-width:0.5;stroke-dasharray:5.0,5.0;" x1="1148.4961" x2="1148.4961" y1="81.2969" y2="582.5547"/></g><g class="participant participant-head" data-participant="User"><text fill="#000000" font-family="sans-serif" font-size="14" lengthAdjust="spacing" textLength="31.9102" x="5" y="77.9951">User</text><ellipse cx="23.9551" cy="13.5" fill="#E2E2F0" rx="8" ry="8" style="stroke:#181818;stroke-width:0.5;"/><path d="M23.9551,21.5 L23.9551,48.5 M10.9551,29.5 L36.9551,29.5 M23.9551,48.5 L10.9551,63.5 M23.9551,48.5 L36.9551,63.5" fill="none" style="stroke:#181818;stroke-width:0.5;"/></g><g class="participant participant-tail" data-participant="User"><text fill="#000000" font-family="sans-serif" font-size="14" lengthAdjust="spacing" textLength="31.9102" x="5" y="594.5498">User</text><ellipse cx="23.9551" cy="606.3516" fill="#E2E2F0" rx="8" ry="8" style="stroke:#181818;stroke-width:0.5;"/><path d="M23.9551,614.3516 L23.9551,641.3516 M10.9551,622.3516 L36.9551,622.3516 M23.9551,641.3516 L10.9551,656.3516 M23.9551,641.3516 L36.9551,656.3516" fill="none" style="stroke:#181818;stroke-width:0.5;"/></g><g class="participant participant-head" data-participant="BookingsController"><text fill="#000000" font-family="sans-serif" font-size="14" lengthAdjust="spacing" textLength="132.959" x="153.0488" y="77.9951">BookingsController</text><path d="M202.0283,37 L202.0283,61 M202.0283,49 L219.0283,49" fill="none" style="stroke:#181818;stroke-width:0.5;"/><ellipse cx="231.0283" cy="49" fill="#E2E2F0" rx="12" ry="12" style="stroke:#181818;stroke-width:0.5;"/></g><g class="participant participant-tail" data-participant="BookingsController"><text fill="#000000" font-family="sans-serif" font-size="14" lengthAdjust="spacing" textLength="132.959" x="153.0488" y="594.5498">BookingsController</text><path d="M202.0283,601.8516 L202.0283,625.8516 M202.0283,613.8516 L219.0283,613.8516" fill="none" style="stroke:#181818;stroke-width:0.5;"/><ellipse cx="231.0283" cy="613.8516" fill="#E2E2F0" rx="12" ry="12" style="stroke:#181818;stroke-width:0.5;"/></g><g class="participant participant-head" data-participant="BookingService"><text fill="#000000" font-family="sans-serif" font-size="14" lengthAdjust="spacing" textLength="108.2334" x="368.2759" y="77.9951">BookingService</text><ellipse cx="425.3926" cy="49" fill="#E2E2F0" rx="12" ry="12" style="stroke:#181818;stroke-width:0.5;"/><polygon fill="#181818" points="421.3926,37,427.3926,32,425.3926,37,427.3926,42,421.3926,37" style="stroke:#181818;stroke-width:1;"/></g><g class="participant participant-tail" data-participant="BookingService"><text fill="#000000" font-family="sans-serif" font-size="14" lengthAdjust="spacing" textLength="108.2334" x="368.2759" y="594.5498">BookingService</text><ellipse cx="425.3926" cy="613.8516" fill="#E2E2F0" rx="12" ry="12" style="stroke:#181818;stroke-width:0.5;"/><polygon fill="#181818" points="421.3926,601.8516,427.3926,596.8516,425.3926,601.8516,427.3926,606.8516,421.3926,601.8516" style="stroke:#181818;stroke-width:1;"/></g><g class="participant participant-head" data-participant="BookingRepository"><text fill="#000000" font-family="sans-serif" font-size="14" lengthAdjust="spacing" textLength="131.5645" x="524.0039" y="77.9951">BookingRepository</text><ellipse cx="592.7861" cy="49" fill="#E2E2F0" rx="12" ry="12" style="stroke:#181818;stroke-width:0.5;"/><polygon fill="#181818" points="588.7861,37,594.7861,32,592.7861,37,594.7861,42,588.7861,37" style="stroke:#181818;stroke-width:1;"/></g><g class="participant participant-tail" data-participant="BookingRepository"><text fill="#000000" font-family="sans-serif" font-size="14" lengthAdjust="spacing" textLength="131.5645" x="524.0039" y="594.5498">BookingRepository</text><ellipse cx="592.7861" cy="613.8516" fill="#E2E2F0" rx="12" ry="12" style="stroke:#181818;stroke-width:0.5;"/><polygon fill="#181818" points="588.7861,601.8516,594.7861,596.8516,592.7861,601.8516,594.7861,606.8516,588.7861,601.8516" style="stroke:#181818;stroke-width:1;"/></g><g class="participant participant-head" data-participant="BookingOwnerRepository"><text fill="#000000" font-family="sans-serif" font-size="14" lengthAdjust="spacing" textLength="177.2764" x="671.5684" y="77.9951">BookingOwnerRepository</text><ellipse cx="763.2065" cy="49" fill="#E2E2F0" rx="12" ry="12" style="stroke:#181818;stroke-width:0.5;"/><polygon fill="#181818" points="759.2065,37,765.2065,32,763.2065,37,765.2065,42,759.2065,37" style="stroke:#181818;stroke-width:1;"/></g><g class="participant participant-tail" data-participant="BookingOwnerRepository"><text fill="#000000" font-family="sans-serif" font-size="14" lengthAdjust="spacing" textLength="177.2764" x="671.5684" y="594.5498">BookingOwnerRepository</text><ellipse cx="763.2065" cy="613.8516" fill="#E2E2F0" rx="12" ry="12" style="stroke:#181818;stroke-width:0.5;"/><polygon fill="#181818" points="759.2065,601.8516,765.2065,596.8516,763.2065,601.8516,765.2065,606.8516,759.2065,601.8516" style="stroke:#181818;stroke-width:1;"/></g><g class="participant participant-head" data-participant="BookingAddressRepository"><text fill="#000000" font-family="sans-serif" font-size="14" lengthAdjust="spacing" textLength="187.8721" x="864.8447" y="77.9951">BookingAddressRepository</text><ellipse cx="961.7808" cy="49" fill="#E2E2F0" rx="12" ry="12" style="stroke:#181818;stroke-width:0.5;"/><polygon fill="#181818" points="957.7808,37,963.7808,32,961.7808,37,963.7808,42,957.7808,37" style="stroke:#181818;stroke-width:1;"/></g><g class="participant participant-tail" data-participant="BookingAddressRepository"><text fill="#000000" font-family="sans-serif" font-size="14" lengthAdjust="spacing" textLength="187.8721" x="864.8447" y="594.5498">BookingAddressRepository</text><ellipse cx="961.7808" cy="613.8516" fill="#E2E2F0" rx="12" ry="12" style="stroke:#181818;stroke-width:0.5;"/><polygon fill="#181818" points="957.7808,601.8516,963.7808,596.8516,961.7808,601.8516,963.7808,606.8516,957.7808,601.8516" style="stroke:#181818;stroke-width:1;"/></g><g class="participant participant-head" data-participant="Database"><text fill="#000000" font-family="sans-serif" font-size="14" lengthAdjust="spacing" textLength="66.8008" x="1112.4961" y="77.9951">Database</text><ellipse cx="1148.8965" cy="49" fill="#E2E2F0" rx="12" ry="12" style="stroke:#181818;stroke-width:0.5;"/><line style="stroke:#181818;stroke-width:0.5;" x1="1136.8965" x2="1160.8965" y1="63" y2="63"/></g><g class="participant participant-tail" data-participant="Database"><text fill="#000000" font-family="sans-serif" font-size="14" lengthAdjust="spacing" textLength="66.8008" x="1112.4961" y="594.5498">Database</text><ellipse cx="1148.8965" cy="613.8516" fill="#E2E2F0" rx="12" ry="12" style="stroke:#181818;stroke-width:0.5;"/><line style="stroke:#181818;stroke-width:0.5;" x1="1136.8965" x2="1160.8965" y1="627.8516" y2="627.8516"/></g><g class="message" data-participant-1="User" data-participant-2="BookingsController"><polygon fill="#181818" points="210.5283,108.4297,220.5283,112.4297,210.5283,116.4297,214.5283,112.4297" style="stroke:#181818;stroke-width:1;"/><line style="stroke:#181818;stroke-width:1;" x1="23.9551" x2="216.5283" y1="112.4297" y2="112.4297"/><text fill="#000000" font-family="sans-serif" font-size="13" lengthAdjust="spacing" textLength="174.5732" x="30.9551" y="107.3638">DELETE /api/Bookings/{id}</text></g><g class="message" data-participant-1="BookingsController" data-participant-2="BookingService"><polygon fill="#181818" points="413.3926,137.5625,423.3926,141.5625,413.3926,145.5625,417.3926,141.5625" style="stroke:#181818;stroke-width:1;"/><line style="stroke:#181818;stroke-width:1;" x1="222.5283" x2="419.3926" y1="141.5625" y2="141.5625"/><text fill="#000000" font-family="sans-serif" font-size="13" lengthAdjust="spacing" textLength="178.8643" x="229.5283" y="136.4966">DeleteFullBookingAsync(id)</text></g><g class="message" data-participant-1="BookingService" data-participant-2="BookingRepository"><polygon fill="#181818" points="580.7861,166.6953,590.7861,170.6953,580.7861,174.6953,584.7861,170.6953" style="stroke:#181818;stroke-width:1;"/><line style="stroke:#181818;stroke-width:1;" x1="425.3926" x2="586.7861" y1="170.6953" y2="170.6953"/><text fill="#000000" font-family="sans-serif" font-size="13" lengthAdjust="spacing" textLength="83.9224" x="432.3926" y="165.6294">GetAsync(id)</text></g><g class="message" data-participant-1="BookingRepository" data-participant-2="Database"><polygon fill="#181818" points="1136.8965,195.8281,1146.8965,199.8281,1136.8965,203.8281,1140.8965,199.8281" style="stroke:#181818;stroke-width:1;"/><line style="stroke:#181818;stroke-width:1;" x1="592.7861" x2="1142.8965" y1="199.8281" y2="199.8281"/><text fill="#000000" font-family="sans-serif" font-size="13" lengthAdjust="spacing" textLength="264.4878" x="599.7861" y="194.7622">SELECT * FROM Bookings WHERE Id = id</text></g><g class="message" data-participant-1="Database" data-participant-2="BookingRepository"><polygon fill="#181818" points="603.7861,224.9609,593.7861,228.9609,603.7861,232.9609,599.7861,228.9609" style="stroke:#181818;stroke-width:1;"/><line style="stroke:#181818;stroke-width:1;stroke-dasharray:2.0,2.0;" x1="597.7861" x2="1147.8965" y1="228.9609" y2="228.9609"/><text fill="#000000" font-family="sans-serif" font-size="13" lengthAdjust="spacing" textLength="90.4097" x="609.7861" y="223.895">BookingEntity</text></g><g class="message" data-participant-1="BookingService" data-participant-2="BookingRepository"><polygon fill="#181818" points="580.7861,254.0938,590.7861,258.0938,580.7861,262.0938,584.7861,258.0938" style="stroke:#181818;stroke-width:1;"/><line style="stroke:#181818;stroke-width:1;" x1="425.3926" x2="586.7861" y1="258.0938" y2="258.0938"/><text fill="#000000" font-family="sans-serif" font-size="13" lengthAdjust="spacing" textLength="143.3936" x="432.3926" y="253.0278">DeleteAsync(booking)</text></g><g class="message" data-participant-1="BookingRepository" data-participant-2="Database"><polygon fill="#181818" points="1136.8965,283.2266,1146.8965,287.2266,1136.8965,291.2266,1140.8965,287.2266" style="stroke:#181818;stroke-width:1;"/><line style="stroke:#181818;stroke-width:1;" x1="592.7861" x2="1142.8965" y1="287.2266" y2="287.2266"/><text fill="#000000" font-family="sans-serif" font-size="13" lengthAdjust="spacing" textLength="155.2891" x="599.7861" y="282.1606">DELETE FROM Bookings</text></g><g class="message" data-participant-1="Database" data-participant-2="BookingRepository"><polygon fill="#181818" points="603.7861,312.3594,593.7861,316.3594,603.7861,320.3594,599.7861,316.3594" style="stroke:#181818;stroke-width:1;"/><line style="stroke:#181818;stroke-width:1;stroke-dasharray:2.0,2.0;" x1="597.7861" x2="1147.8965" y1="316.3594" y2="316.3594"/><text fill="#000000" font-family="sans-serif" font-size="13" lengthAdjust="spacing" textLength="18.7573" x="609.7861" y="311.2935">OK</text></g><g class="message" data-participant-1="BookingService" data-participant-2="BookingOwnerRepository"><polygon fill="#181818" points="751.2065,341.4922,761.2065,345.4922,751.2065,349.4922,755.2065,345.4922" style="stroke:#181818;stroke-width:1;"/><line style="stroke:#181818;stroke-width:1;" x1="425.3926" x2="757.2065" y1="345.4922" y2="345.4922"/><text fill="#000000" font-family="sans-serif" font-size="13" lengthAdjust="spacing" textLength="131.771" x="432.3926" y="340.4263">DeleteAsync(owner)</text></g><g class="message" data-participant-1="BookingOwnerRepository" data-participant-2="Database"><polygon fill="#181818" points="1136.8965,370.625,1146.8965,374.625,1136.8965,378.625,1140.8965,374.625" style="stroke:#181818;stroke-width:1;"/><line style="stroke:#181818;stroke-width:1;" x1="763.2065" x2="1142.8965" y1="374.625" y2="374.625"/><text fill="#000000" font-family="sans-serif" font-size="13" lengthAdjust="spacing" textLength="145.2788" x="770.2065" y="369.5591">DELETE FROM Owners</text></g><g class="message" data-participant-1="Database" data-participant-2="BookingOwnerRepository"><polygon fill="#181818" points="774.2065,399.7578,764.2065,403.7578,774.2065,407.7578,770.2065,403.7578" style="stroke:#181818;stroke-width:1;"/><line style="stroke:#181818;stroke-width:1;stroke-dasharray:2.0,2.0;" x1="768.2065" x2="1147.8965" y1="403.7578" y2="403.7578"/><text fill="#000000" font-family="sans-serif" font-size="13" lengthAdjust="spacing" textLength="18.7573" x="780.2065" y="398.6919">OK</text></g><g class="message" data-participant-1="BookingService" data-participant-2="BookingAddressRepository"><polygon fill="#181818" points="949.7808,428.8906,959.7808,432.8906,949.7808,436.8906,953.7808,432.8906" style="stroke:#181818;stroke-width:1;"/><line style="stroke:#181818;stroke-width:1;" x1="425.3926" x2="955.7808" y1="432.8906" y2="432.8906"/><text fill="#000000" font-family="sans-serif" font-size="13" lengthAdjust="spacing" textLength="142.9619" x="432.3926" y="427.8247">DeleteAsync(address)</text></g><g class="message" data-participant-1="BookingAddressRepository" data-participant-2="Database"><polygon fill="#181818" points="1136.8965,458.0234,1146.8965,462.0234,1136.8965,466.0234,1140.8965,462.0234" style="stroke:#181818;stroke-width:1;"/><line style="stroke:#181818;stroke-width:1;" x1="961.7808" x2="1142.8965" y1="462.0234" y2="462.0234"/><text fill="#000000" font-family="sans-serif" font-size="13" lengthAdjust="spacing" textLength="163.1157" x="968.7808" y="456.9575">DELETE FROM Addresses</text></g><g class="message" data-participant-1="Database" data-participant-2="BookingAddressRepository"><polygon fill="#181818" points="972.7808,487.1563,962.7808,491.1563,972.7808,495.1563,968.7808,491.1563" style="stroke:#181818;stroke-width:1;"/><line style="stroke:#181818;stroke-width:1;stroke-dasharray:2.0,2.0;" x1="966.7808" x2="1147.8965" y1="491.1563" y2="491.1563"/><text fill="#000000" font-family="sans-serif" font-size="13" lengthAdjust="spacing" textLength="18.7573" x="978.7808" y="486.0903">OK</text></g><g class="message" data-participant-1="BookingService" data-participant-2="BookingsController"><polygon fill="#181818" points="233.5283,516.2891,223.5283,520.2891,233.5283,524.2891,229.5283,520.2891" style="stroke:#181818;stroke-width:1;"/><line style="stroke:#181818;stroke-width:1;stroke-dasharray:2.0,2.0;" x1="227.5283" x2="424.3926" y1="520.2891" y2="520.2891"/><text fill="#000000" font-family="sans-serif" font-size="13" lengthAdjust="spacing" textLength="167.3242" x="239.5283" y="515.2231">BookingResult&lt;Success&gt;</text></g><g class="message" data-participant-1="BookingsController" data-participant-2="User"><polygon fill="#181818" points="34.9551,560.5547,24.9551,564.5547,34.9551,568.5547,30.9551,564.5547" style="stroke:#181818;stroke-width:1;"/><line style="stroke:#181818;stroke-width:1;stroke-dasharray:2.0,2.0;" x1="28.9551" x2="221.5283" y1="564.5547" y2="564.5547"/><text fill="#000000" font-family="sans-serif" font-size="13" lengthAdjust="spacing" textLength="47.7026" x="40.9551" y="544.356">200 OK</text><text fill="#000000" font-family="sans-serif" font-size="13" lengthAdjust="spacing" textLength="121.8877" x="40.9551" y="559.4888">"Booking deleted."</text></g><!--SRC=[ZPDVIyCm5CNVyoakUr9XTlWuTA1Rfw9Iw3PyyILjBX8ioKXIfOZVtVJ_JDFDjv9pxhc_c-RIr4W5EusA938NZAe2xgJyuE9TBwKmIcQPrTBwivKsg3vvYkvnZ7kfkGqiN2Nw4gZ6vLl656fzO41Xk2bWHGrDg4P2IaIOBZnmC8TL-1nkGmZedWUj8VZcx8Tux7r8CqOPW1aQNETPrXBfGgHdd9qJnzjNzxGsu1xDeEJ0OAlQKQnvOt6NMxY0THozT1F1wqCOX_38u0Ou8vr_EjAoEGkhcoB_vAm7hL6JMZ_Dsrpl7zhJVD7J4IZdGJXaibGxBjSx3bSv_MZ3XaVv1Y_I8QIrtZ4E_UEKZHVzeBxEFjInNUX-XSupSxt9qzIcBRoBO2EgjPh3rMnccxo9IMC3LitABYU_]--></g></svg>